<?xml version="1.0" encoding="UTF-8"?>
<svg id="Layer_2" data-name="Layer 2" xmlns="http://www.w3.org/2000/svg" viewBox="0 0 280.55 280.55">
  <defs>
    <style>
      .cls-1 {
        fill: #f8d64e;
      }

      .cls-2 {
        fill: #050c1e;
      }
    </style>
  </defs>
  <g id="Layer_1-2" data-name="Layer 1">
    <rect class="cls-2" width="280.55" height="280.55" rx="39.1" ry="39.1"/>
    <g>
      <path class="cls-1" d="M180.99,82.54h-6c-1.26,0-2.33.93-2.51,2.18l-18.93,134.07c-.18,1.25-1.25,2.18-2.51,2.18h-19.9c-1.26,0-2.33.93-2.51,2.18l-.65,4.58c-.22,1.53.97,2.89,2.51,2.89h30.3c1.26,0,2.33-.93,2.51-2.18l10.66-75.48c.02-.12.04-.23.07-.35l7.88-55.95,1.58-11.23c.22-1.53-.97-2.89-2.51-2.89Z"/>
      <path class="cls-1" d="M145.31,214.37c1.26,0,2.33-.93,2.51-2.18l20.19-143.01c.22-1.53-.97-2.89-2.51-2.89h-5.98c-1.26,0-2.33.93-2.51,2.18l-18.42,130.46-.49,3.5c-.18,1.25-1.25,2.18-2.51,2.18h-19.91c-1.26,0-2.33.93-2.51,2.18l-.66,4.7c-.22,1.53.97,2.89,2.51,2.89h30.3Z"/>
      <path class="cls-1" d="M132.37,195.82l20.19-143.01c.22-1.53-.97-2.89-2.51-2.89h-30.3c-1.26,0-2.33.93-2.51,2.18l-20.19,143.01c-.22,1.53.97,2.89,2.51,2.89h30.3c1.26,0,2.33-.93,2.51-2.18Z"/>
    </g>
  </g>
</svg>