<?xml version="1.0" encoding="UTF-8"?>
<svg id="Layer_2" data-name="Layer 2" xmlns="http://www.w3.org/2000/svg" viewBox="0 0 337.69 582.18">
  <defs>
    <style>
      .cls-1 {
        fill: #050c1e;
      }
    </style>
  </defs>
  <g id="Layer_1-2" data-name="Layer 1">
    <g>
      <path class="cls-1" d="M289.09,472.04c-.53-3.76-3.75-6.56-7.55-6.56h-59.92c-3.8,0-7.02-2.8-7.55-6.56l-1.49-10.52L157.15,55.81c-.53-3.76-3.75-6.56-7.56-6.56h-18.01c-4.64,0-8.2,4.1-7.55,8.7l60.76,430.36c.53,3.76,3.75,6.56,7.55,6.56h91.19c4.64,0,8.2-4.1,7.55-8.7l-2-14.13Z"/>
      <path class="cls-1" d="M337.61,436.93L276.86,6.56c-.53-3.76-3.75-6.56-7.55-6.56h-91.19c-4.64,0-8.2,4.1-7.55,8.7l60.76,430.36c.53,3.76,3.75,6.56,7.55,6.56h91.19c4.64,0,8.2-4.1,7.55-8.7Z"/>
      <path class="cls-1" d="M244.82,532.25l-1.27-9-.28-1.95c-.53-3.76-3.75-6.56-7.55-6.56h-59.92c-3.8,0-7.02-2.8-7.55-6.56l-1.49-10.52L111.34,105.07c-.53-3.76-3.75-6.56-7.55-6.56h-18.01c-2.44,0-4.56,1.15-5.94,2.89-1.26,1.57-1.92,3.63-1.61,5.81l31.35,222.1c1.22,18.58-.88,37.26-6.33,55.13-1.13,3.39-2.43,6.69-3.81,9.94-7.04,16.61-17.28,31.43-30.73,44.47-1.06,1.03-2.08,2.08-3.18,3.08-15.25,13.94-33.86,24.72-55.82,32.32-6.5,2.25-10.49,8.81-9.57,15.62l10.72,79.66c.14,1.03.4,2.01.73,2.94,2.69,7.61,11.32,11.82,19.15,8.61,14.96-6.13,28.81-14.49,41.59-24.96,6.42-5.26,12.58-11.01,18.45-17.36,8.35-9.05,15.95-18.94,22.82-29.66,2.16-3.37,4.25-6.82,6.26-10.36,1.15-2.02,2.89-3.22,4.77-3.69,3.54-.89,7.57.81,8.99,4.55l5.36,37.96c.53,3.76,3.75,6.56,7.55,6.56h91.19c4.64,0,8.2-4.1,7.55-8.7l-.45-3.18Z"/>
    </g>
  </g>
</svg>