<?xml version="1.0" encoding="UTF-8"?>
<svg id="Layer_2" data-name="Layer 2" xmlns="http://www.w3.org/2000/svg" viewBox="0 0 1087.78 590.19">
  <defs>
    <style>
      .cls-1 {
        fill: #050c1e;
      }
    </style>
  </defs>
  <g id="Layer_1-2" data-name="Layer 1">
    <g>
      <path class="cls-1" d="M1039.18,472.04c-.53-3.76-3.75-6.56-7.55-6.56h-59.92c-3.8,0-7.02-2.8-7.55-6.56l-1.49-10.52-55.42-392.59c-.53-3.76-3.75-6.56-7.56-6.56h-18.01c-4.64,0-8.2,4.1-7.55,8.7l60.76,430.36c.53,3.76,3.75,6.56,7.55,6.56h91.19c4.64,0,8.2-4.1,7.55-8.7l-2-14.13Z"/>
      <path class="cls-1" d="M1087.7,436.93L1026.94,6.56c-.53-3.76-3.75-6.56-7.55-6.56h-91.19c-4.64,0-8.2,4.1-7.55,8.7l60.76,430.36c.53,3.76,3.75,6.56,7.55,6.56h91.19c4.64,0,8.2-4.1,7.55-8.7Z"/>
      <path class="cls-1" d="M69.49,168.69c.68,5.75,6.3,9.56,11.89,8.05l149.2-40.17c4.57-1.23,7.53-5.64,6.95-10.34l-7.65-61.24c-.71-5.72-6.32-9.48-11.88-7.99l-148.76,40.05c-4.54,1.22-7.5,5.59-6.96,10.27l7.21,61.36Z"/>
      <path class="cls-1" d="M684.16,390.45c11.52-29.48,15.24-59.89,11.12-91.21-4.11-31.33-14.92-57.83-32.43-79.49-17.51-21.67-39.75-36.44-66.74-44.3-26.98-7.87-56.21-7.57-87.66.9-31.05,8.36-58.38,23.29-82.01,44.78-23.62,21.49-41.09,46.95-52.41,76.39-10.63,27.63-14.45,56.11-11.48,85.42l-43.38,11.68c1.18-2.68,2.33-5.39,3.4-8.14,11.52-29.48,15.24-59.89,11.12-91.21-4.11-31.33-14.92-57.83-32.43-79.49-17.51-21.67-39.75-36.44-66.74-44.31-26.98-7.87-56.21-7.57-87.66.9-31.05,8.36-58.38,23.29-82.01,44.78-23.62,21.49-41.09,46.95-52.41,76.39-11.32,29.42-14.92,59.81-10.82,91.14,4.11,31.33,14.92,57.82,32.43,79.49,17.51,21.66,39.76,36.43,66.74,44.3,19.96,5.82,41.04,7.19,63.22,4.13h0s.11-.01.11-.01c7.78-1.08,15.68-2.68,23.73-4.85,2.18-.59,4.34-1.22,6.49-1.87l196.72-43.74c1.48,2.04,2.99,4.06,4.58,6.03,17.51,21.66,39.76,36.43,66.74,44.31,26.99,7.86,56.01,7.63,87.05-.73,31.05-8.36,58.39-23.29,82-44.78,23.62-21.5,41.19-46.99,52.71-76.47ZM241.18,363.62c-5.21,14.38-13.34,26.72-24.4,37.06-11.06,10.33-24.04,17.5-38.97,21.52-14.91,4.02-28.75,4.06-41.48.14-12.73-3.93-23.24-11.26-31.55-22-8.29-10.74-13.44-23.85-15.45-39.3-2.4-15.36-1-30.22,4.21-44.6,5.21-14.38,13.45-26.76,24.7-37.14,11.26-10.39,24.36-17.59,39.27-21.6,14.92-4.02,28.74-4.07,41.48-.14,12.73,3.92,23.25,11.25,31.54,22,8.31,10.74,13.45,23.84,15.45,39.31,2.01,15.45.4,30.38-4.82,44.76ZM602.76,367.6c-5.21,14.38-13.34,26.72-24.4,37.06-11.06,10.33-24.04,17.5-38.97,21.52-14.91,4.01-28.75,4.06-41.48.14-12.73-3.93-23.24-11.26-31.55-22-8.29-10.74-13.44-23.85-15.45-39.3-2.4-15.36-1-30.22,4.21-44.6,5.21-14.38,13.45-26.76,24.7-37.14,11.26-10.39,24.36-17.59,39.27-21.6,14.92-4.02,28.74-4.07,41.48-.14,12.73,3.92,23.25,11.25,31.54,22,8.31,10.74,13.45,23.84,15.45,39.31,2,15.45.4,30.38-4.82,44.76Z"/>
      <path class="cls-1" d="M994.91,532.25l-1.27-9-.28-1.95c-.53-3.76-3.75-6.56-7.55-6.56h-59.92c-3.8,0-7.02-2.8-7.55-6.56l-1.49-10.52-55.42-392.59c-.53-3.76-3.75-6.56-7.55-6.56h-18.01c-2.44,0-4.56,1.15-5.94,2.89-1.26,1.57-1.92,3.63-1.61,5.81l31.35,222.1c1.22,18.58-.88,37.26-6.33,55.13-1.13,3.39-2.43,6.69-3.81,9.94-7.04,16.61-17.28,31.43-30.73,44.47-1.06,1.03-2.08,2.08-3.18,3.08-15.25,13.94-33.86,24.72-55.82,32.32-6.5,2.25-10.49,8.81-9.57,15.62l10.72,79.66c.14,1.03.4,2.01.73,2.94,2.69,7.61,11.32,11.82,19.15,8.61,14.96-6.13,28.81-14.49,41.59-24.96,6.42-5.26,12.58-11.01,18.45-17.36,8.35-9.05,15.95-18.94,22.82-29.66,2.16-3.37,4.25-6.82,6.26-10.36,1.15-2.02,2.89-3.22,4.77-3.69,3.54-.89,7.57.81,8.99,4.55l5.36,37.96c.53,3.76,3.75,6.56,7.55,6.56h91.19c4.64,0,8.2-4.1,7.55-8.7l-.45-3.18Z"/>
      <path class="cls-1" d="M755.96,463.2c20.35-7.05,37.76-17.11,51.76-29.91.61-.56,1.19-1.14,1.78-1.72.38-.38.76-.75,1.15-1.13,9.33-9.04,17.03-19.12,23-30.09,2.62-4.8,3.54-10.35,2.87-15.77l-27.77-225.08c-.92-7.47-9.98-10.68-15.4-5.46l-63.34,61.08c-4.72,4.55-7.02,11.05-6.22,17.56l15.28,123.88.05.43.02.43c.98,20.08-1.65,39.11-7.82,56.57-7.55,21.34-20.48,39.89-38.43,55.11-12.99,11.02-28.48,19.99-46.23,26.79-6.02,2.3-9.65,8.46-8.84,14.85l8.5,67.13c1.26,9.91,12.16,15.39,20.87,10.5,12.87-7.23,24.81-16.63,35.71-28.14,13.02-13.75,24.33-30.25,33.62-49.03l3.74-7.55-1.64-12.21c-1.66-12.31,5.63-24.18,17.33-28.23Z"/>
      <path class="cls-1" d="M717.92,145.54c.82,6.97,7.64,11.59,14.41,9.76l68.08-18.33h0c5.54-1.49,9.13-6.84,8.42-12.53l-7.37-59.01c-.87-6.93-7.66-11.5-14.4-9.68l-67.6,18.2h0l-.07.02c-5.51,1.48-9.1,6.78-8.43,12.45l6.95,59.13Z"/>
    </g>
  </g>
</svg>