<?xml version="1.0" encoding="UTF-8"?>
<svg id="Layer_2" data-name="Layer 2" xmlns="http://www.w3.org/2000/svg" viewBox="0 0 297.75 410.97">
  <defs>
    <style>
      .cls-1 {
        fill: #050c1e;
      }
    </style>
  </defs>
  <g id="Layer_1-2" data-name="Layer 1">
    <g>
      <path class="cls-1" d="M287.48,146.58l10.21-70.89c.52-3.61-2.41-6.81-6.05-6.6-20.76,1.16-40.54,7.48-59.34,18.96-10.44,6.38-20.24,14.08-29.41,23.09-3.96,3.89-10.57.64-9.8-4.86l3.6-25.53c.49-3.47-2.2-6.57-5.71-6.57h-13.64c-2.87,0-5.31,2.11-5.71,4.96l-43.05,304.93c-.4,2.84-2.84,4.96-5.71,4.96h-45.26c-2.87,0-5.31,2.11-5.71,4.96l-1.47,10.42c-.49,3.47,2.2,6.57,5.71,6.57h68.92c2.87,0,5.31-2.11,5.71-4.96l24.24-171.68c.04-.26.09-.53.16-.79,3.59-13.35,8.98-25.32,16.18-35.87,9.91-14.53,23-25.86,39.29-34.01,15.01-7.51,32.09-11.56,51.22-12.14,2.83-.09,5.21-2.14,5.62-4.94Z"/>
      <path class="cls-1" d="M109.85,374.02c2.87,0,5.31-2.11,5.71-4.96L161.48,43.79c.49-3.47-2.2-6.57-5.71-6.57h-13.61c-2.87,0-5.31,2.11-5.71,4.96l-41.89,296.71-1.12,7.95c-.4,2.84-2.84,4.96-5.71,4.96h-45.29c-2.87,0-5.31,2.11-5.71,4.96l-1.51,10.68c-.49,3.47,2.2,6.57,5.71,6.57h33.81s35.11,0,35.11,0Z"/>
      <path class="cls-1" d="M80.4,331.84L126.31,6.57C126.8,3.1,124.11,0,120.61,0H51.69c-2.87,0-5.31,2.11-5.71,4.96L.06,330.22c-.49,3.47,2.2,6.57,5.71,6.57h68.92c2.87,0,5.31-2.11,5.71-4.96Z"/>
    </g>
  </g>
</svg>