<?xml version="1.0" encoding="UTF-8"?>
<svg id="Layer_2" data-name="Layer 2" xmlns="http://www.w3.org/2000/svg" viewBox="0 0 1014.31 236.98">
  <defs>
    <style>
      .cls-1 {
        fill: #050c1e;
      }
    </style>
  </defs>
  <g id="Layer_1-2" data-name="Layer 1">
    <g>
      <path class="cls-1" d="M349.02,41.97h-38.62c-1.63,0-3,1.2-3.23,2.81l-14.8,104.83-.12-.04c-1.75,12.95-7.29,23.41-16.63,31.38-9.34,7.98-20.73,11.96-34.18,11.96-12.46,0-21.92-3.86-28.39-11.58-6.48-7.72-8.84-18.06-7.1-31.01l14.79-104.62c.28-1.96-1.25-3.72-3.23-3.72h-38.62c-1.63,0-3,1.2-3.23,2.81l-16.79,118.98c-2.24,14.7-1.12,27.59,3.36,38.67,4.48,11.08,11.7,19.61,21.67,25.59,9.96,5.98,22.04,8.97,36.24,8.97,21.42,0,40.16-7.1,56.23-21.29.32-.29.65-.58.97-.87,2.26-2.06,5.85-.17,5.42,2.86l-1.57,11.1c-.28,1.96,1.25,3.72,3.23,3.72h38.62c1.63,0,3-1.2,3.23-2.81l25.98-184.01c.28-1.96-1.25-3.72-3.23-3.72Z"/>
      <path class="cls-1" d="M501.43,188.79h-82.34c-2.86,0-4.33-3.41-2.38-5.49l100.87-107.71c.45-.49.75-1.1.85-1.75l4.16-28.13c.29-1.97-1.24-3.74-3.23-3.74h-146.2c-1.62,0-3,1.19-3.23,2.79l-5.4,37.19c-.29,1.97,1.24,3.73,3.23,3.73h77.93c2.85,0,4.33,3.4,2.38,5.49l-100.57,107.71c-.45.48-.75,1.09-.84,1.75l-4.16,28.13c-.29,1.97,1.24,3.74,3.23,3.74h150.31c1.62,0,3-1.19,3.23-2.79l5.4-37.19c.29-1.97-1.24-3.73-3.23-3.73Z"/>
      <path class="cls-1" d="M821.08,56.91c-11.08-12.95-27.09-19.43-48.01-19.43s-40.16,6.72-56.23,20.17c-3.91,3.28-7.57,6.88-10.97,10.81-1.54,1.78-4.34,1.35-5.36-.76-1.89-3.88-4.22-7.49-7.02-10.8-10.96-12.95-27.03-19.43-48.19-19.43s-38.8,6.91-54.36,20.73c-.02.02-.05.04-.07.06-2.27,2.02-5.81.18-5.38-2.82l1.38-9.77c.28-1.96-1.25-3.72-3.23-3.72h-38.99c-1.63,0-3,1.2-3.23,2.81l-25.98,184.01c-.28,1.96,1.25,3.72,3.23,3.72h38.99c1.63,0,3-1.2,3.23-2.81l15.82-112.06c.02-.11.04-.23.06-.34,2.23-9.76,7.12-17.88,14.73-24.33,8.97-7.6,19.92-11.39,32.88-11.39,11.7,0,20.67,3.68,26.9,11.02,6.22,7.35,8.59,17.13,7.1,29.33l-15.16,106.86c-.28,1.96,1.25,3.72,3.23,3.72h38.62c1.62,0,3-1.19,3.23-2.8l15.93-112.2c.02-.13.04-.26.07-.38,2.41-9.89,7.39-18.01,14.98-24.34,8.97-7.47,19.8-11.21,32.5-11.21,11.96,0,21.04,3.68,27.27,11.02,6.22,7.35,8.46,17.13,6.73,29.33l-15.16,106.86c-.28,1.96,1.25,3.72,3.23,3.72h38.98c1.63,0,3.01-1.2,3.23-2.81l16.79-120.85c3.23-21.67-.69-38.98-11.77-51.93Z"/>
      <path class="cls-1" d="M1011.05,191.4h-15c-1.98,0-3.51-1.75-3.23-3.72l19.95-142.01c.28-1.96-1.25-3.72-3.23-3.72h-143.62c-1.62,0-2.99,1.18-3.23,2.78l-5.38,36.07c-.29,1.97,1.23,3.74,3.23,3.74h97.72c1.99,0,3.51,1.76,3.23,3.73l-2.91,20c-.23,1.6-1.61,2.79-3.23,2.79h-47.04c-12.95,0-24.97,2.74-36.05,8.22-11.09,5.48-20.3,13.02-27.65,22.6-7.35,9.59-11.77,20.24-13.26,31.94-1.75,11.96-.32,22.73,4.3,32.32,4.61,9.59,11.7,17.13,21.29,22.6,9.59,5.48,20.73,8.22,33.44,8.22s24.72-2.74,36.05-8.22c5.99-2.89,11.4-6.39,16.23-10.48,2.27-1.92,5.71,0,5.31,2.95l-1.04,7.56c-.27,1.96,1.25,3.71,3.23,3.71h56.18c1.63,0,3.01-1.2,3.23-2.82l4.71-34.57c.27-1.96-1.26-3.7-3.23-3.7ZM952.3,151.42l-3.34,22.95c-.03.21-.08.41-.14.61-1.3,3.99-3.46,7.67-6.51,11-3.99,4.36-9.22,7.66-15.69,9.9-6.48,2.24-13.82,3.36-22.04,3.36-5.73,0-10.71-1.06-14.94-3.18-4.24-2.11-7.41-5.23-9.53-9.34-2.12-4.11-2.93-8.53-2.43-13.26.75-4.98,2.8-9.46,6.16-13.45,3.36-3.98,7.53-7.03,12.52-9.15,4.98-2.11,10.21-3.18,15.69-3.18h37.02c1.99,0,3.51,1.76,3.23,3.73Z"/>
      <path class="cls-1" d="M162.64,82.92l5.77-40.1c.29-2.04-1.36-3.85-3.42-3.74-11.75.66-22.94,4.23-33.57,10.72-5.9,3.61-11.45,7.96-16.64,13.06-2.24,2.2-5.98.36-5.54-2.75l2.04-14.44c.28-1.96-1.25-3.72-3.23-3.72h-7.72c-1.63,0-3,1.2-3.23,2.81l-24.35,172.51c-.23,1.61-1.6,2.81-3.23,2.81h-25.61c-1.63,0-3,1.2-3.23,2.81l-.83,5.89c-.28,1.96,1.25,3.72,3.23,3.72h38.99c1.63,0,3-1.2,3.23-2.81l13.71-97.12c.02-.15.05-.3.09-.45,2.03-7.55,5.08-14.32,9.15-20.29,5.6-8.22,13.01-14.63,22.23-19.24,8.49-4.25,18.15-6.54,28.97-6.87,1.6-.05,2.95-1.21,3.18-2.79Z"/>
      <path class="cls-1" d="M62.14,211.59c1.63,0,3-1.2,3.23-2.81L91.35,24.78c.28-1.96-1.25-3.72-3.23-3.72h-7.7c-1.63,0-3,1.2-3.23,2.81l-23.7,167.86-.63,4.5c-.23,1.61-1.6,2.81-3.23,2.81h-25.62c-1.63,0-3,1.2-3.23,2.81l-.85,6.04c-.28,1.96,1.25,3.72,3.23,3.72h38.99Z"/>
      <path class="cls-1" d="M45.48,187.73L71.46,3.72c.28-1.96-1.25-3.72-3.23-3.72H29.24c-1.63,0-3,1.2-3.23,2.81L.03,186.82c-.28,1.96,1.25,3.72,3.23,3.72h38.99c1.63,0,3-1.2,3.23-2.81Z"/>
    </g>
  </g>
</svg>